<svg xmlns="http://www.w3.org/2000/svg" viewBox="0 0 368.94 189.78"><defs><style>.cls-1{fill:#fff;}</style></defs><g id="Layer_2" data-name="Layer 2"><g id="Layer_1-2" data-name="Layer 1"><rect class="cls-1" x="47.9" y="36.18" width="24.93" height="163.25" rx="6.49" transform="translate(-56.66 55.93) rotate(-35)"/><rect class="cls-1" x="1.19" y="15.49" width="105.25" height="24.93" rx="6.49" transform="matrix(0.95, -0.32, 0.32, 0.95, -6.1, 18.58)"/><path class="cls-1" d="M14.65,59.74a5.6,5.6,0,0,1-3.24-8L16.8,40.9a7.57,7.57,0,0,1,9-3.67l80.83,28.24a5.6,5.6,0,0,1,3.24,8L104.5,84.3a7.58,7.58,0,0,1-9,3.68Z"/><rect class="cls-1" x="302.45" y="-25.72" width="24.93" height="105.32" rx="6.49" transform="translate(200.78 321.68) rotate(-73.72)"/><path class="cls-1" d="M356.06,61A5.6,5.6,0,0,0,359,52.89l-5.82-10.66A7.58,7.58,0,0,0,344,38.92L264.37,70.35a5.6,5.6,0,0,0-2.92,8.08l5.82,10.66a7.57,7.57,0,0,0,9.15,3.31Z"/><path class="cls-1" d="M.92,37.48A6.52,6.52,0,0,1,7.45,31l12,.05a6.5,6.5,0,0,1,6.46,6.52l-.64,144.9A6.52,6.52,0,0,1,18.77,189L6.45,188.9A6.49,6.49,0,0,1,0,182.38Z"/><rect class="cls-1" x="73.66" y="67.83" width="151.34" height="23.29" rx="6.06" transform="translate(15.27 182.63) rotate(-65.6)"/><path class="cls-1" d="M178.68,94"/><path class="cls-1" d="M178.68,96.53c3.21,0,3.22-5,0-5s-3.23,5,0,5Z"/><path class="cls-1" d="M253,12.65c2.58,2.46,3.72,5.49,2.52,6.73s-2.17,2.25-2.18,2.25-2,2.11-4.51,4.68L225.92,50.07l-5.09,5.27c-.32.32-.69.71-.82.85l-4.76,4.93-6.41,6.63-9,9.35-1,1.08-9,9.34-54.2,56.15L131,148.35l-.12.12c-.07.06-.4.41-.74.76s-1.45-.14-2.46-1.11l-6.54-6.24-3.93-3.75c-2.59-2.47-4.42-5.09-4.08-5.84s.62-1.35.62-1.36l4.52-4.68,38.75-40.14,9-9.34,19.75-20.46,4.76-4.94.82-.85,5.08-5.27,6.4-6.63,4.77-4.93c.13-.15.5-.53.82-.86l5.08-5.26,21.9-22.69a6.57,6.57,0,0,1,9.21-.19Z"/><path class="cls-1" d="M217,51a8.81,8.81,0,0,1-1.3,9.69l-8.94,9.25c-2.32,2.4-5.52,2-7.11-1l-5.25-9.61c-1.59-2.93-3-5.41-3-5.51s-.25-.46-.43-.78-1.63-3-3.22-5.92l-2-3.58L180,32.9,171.83,18c-1.59-2.93-3.23-5.92-3.63-6.66a2,2,0,0,1,1.1-2.43l1.83-1.09,1.49-.89,6.68-4L182.74.84a5.8,5.8,0,0,1,8.11,2.21l14.2,26c1.6,2.93,3.06,5.59,3.23,5.92s.38.67.43.78,1.42,2.58,3,5.51Z"/><path class="cls-1" d="M232,74.36c-1.61-2.92-4.75-3.28-7-.79L215.92,83.7a9.2,9.2,0,0,0-1.11,9.84l30.36,55.07a5.86,5.86,0,0,0,8.15,2.22l10.45-6.18a6.32,6.32,0,0,0,2.29-8.41Z"/><path class="cls-1" d="M368,34.48A6.5,6.5,0,0,0,361.46,28l-12,.08A6.51,6.51,0,0,0,343,34.64L344,183.33a6.51,6.51,0,0,0,6.53,6.45l12-.08a6.52,6.52,0,0,0,6.46-6.53Z"/></g></g></svg>