<svg xmlns="http://www.w3.org/2000/svg" xmlns:xlink="http://www.w3.org/1999/xlink" viewBox="0 0 1000 1000"><defs><style>.cls-1{stroke:#1d1d1b;stroke-miterlimit:10;fill:url(#New_Gradient_Swatch);}.cls-2{fill:#fff;}</style><linearGradient id="New_Gradient_Swatch" x1="-89.93" y1="347.2" x2="1089.93" y2="652.8" gradientUnits="userSpaceOnUse"><stop offset="0" stop-color="#093028"/><stop offset="1" stop-color="#246678"/></linearGradient></defs><g id="BG"><rect class="cls-1" width="1000" height="1000"/></g><g id="Layer_1" data-name="Layer 1"><rect class="cls-2" x="364.95" y="449.2" width="24.93" height="163.25" rx="6.49" transform="translate(-236.21 312.47) rotate(-35)"/><rect class="cls-2" x="318.23" y="428.51" width="105.25" height="24.93" rx="6.49" transform="translate(-121.06 140.95) rotate(-18.56)"/><path class="cls-2" d="M331.7,472.75a5.6,5.6,0,0,1-3.25-8l5.39-10.87a7.58,7.58,0,0,1,9-3.68l80.83,28.24a5.6,5.6,0,0,1,3.24,8l-5.39,10.88a7.57,7.57,0,0,1-9,3.67Z"/><rect class="cls-2" x="619.49" y="387.29" width="24.93" height="105.32" rx="6.49" transform="translate(32.5 923.25) rotate(-73.72)"/><path class="cls-2" d="M673.1,474A5.6,5.6,0,0,0,676,465.9l-5.82-10.65a7.57,7.57,0,0,0-9.16-3.32l-79.64,31.43a5.61,5.61,0,0,0-2.92,8.09l5.82,10.65a7.56,7.56,0,0,0,9.15,3.31Z"/><path class="cls-2" d="M318,450.49a6.52,6.52,0,0,1,6.53-6.46l12,.05a6.51,6.51,0,0,1,6.46,6.53l-.63,144.9a6.52,6.52,0,0,1-6.53,6.46l-12.32-.05a6.5,6.5,0,0,1-6.45-6.53Z"/><rect class="cls-2" x="390.7" y="480.84" width="151.34" height="23.29" rx="6.06" transform="translate(-174.79 713.75) rotate(-65.6)"/><path class="cls-2" d="M495.72,509.55c3.21,0,3.22-5,0-5s-3.23,5,0,5Z"/><path class="cls-2" d="M570.05,425.66c2.58,2.47,3.72,5.5,2.52,6.74s-2.17,2.25-2.18,2.25l-4.51,4.68L543,463.08l-5.09,5.27-.82.86-4.76,4.93-6.41,6.63-9,9.34-1,1.08-9,9.35-54.2,56.14c-2.48,2.57-4.51,4.68-4.52,4.68l-.12.12-.74.77c-.34.35-1.45-.15-2.46-1.11l-6.54-6.25-3.93-3.75c-2.59-2.46-4.42-5.09-4.08-5.83l.62-1.37s2-2.11,4.52-4.68l38.75-40.14,9-9.34,19.75-20.46,4.76-4.93.82-.86,5.08-5.26,6.41-6.64,4.76-4.93.82-.85,5.08-5.27,21.91-22.68a6.54,6.54,0,0,1,9.2-.19Z"/><path class="cls-2" d="M534.05,464a8.82,8.82,0,0,1-1.31,9.68l-8.94,9.26a4.2,4.2,0,0,1-7.11-1l-5.25-9.62-3-5.51-.42-.78c-.18-.32-1.64-3-3.23-5.92l-1.95-3.57c-1.59-2.93-4.21-7.73-5.81-10.65L488.88,431l-3.64-6.66c-.4-.73.09-1.82,1.1-2.43l1.83-1.09,1.49-.89,6.69-4,3.43-2.06a5.8,5.8,0,0,1,8.11,2.21l14.21,26c1.59,2.92,3,5.59,3.23,5.91s.37.68.43.78l3,5.51Z"/><path class="cls-2" d="M549,487.37c-1.61-2.92-4.75-3.27-7-.78L533,496.72a9.18,9.18,0,0,0-1.11,9.83l30.36,55.08a5.86,5.86,0,0,0,8.15,2.22l10.45-6.19a6.31,6.31,0,0,0,2.29-8.4Z"/><path class="cls-2" d="M685,447.49a6.51,6.51,0,0,0-6.53-6.45l-12,.08a6.51,6.51,0,0,0-6.45,6.53l1,148.69a6.5,6.5,0,0,0,6.53,6.45l12-.07a6.53,6.53,0,0,0,6.46-6.54Z"/></g></svg>