<svg id="Layer_1" data-name="Layer 1" xmlns="http://www.w3.org/2000/svg" xmlns:xlink="http://www.w3.org/1999/xlink" viewBox="0 0 1000 1000"><defs><style>.cls-1{fill:url(#linear-gradient);}.cls-2{fill:url(#linear-gradient-2);}.cls-3{fill:url(#linear-gradient-3);}.cls-4{fill:url(#linear-gradient-4);}.cls-5{fill:url(#linear-gradient-5);}.cls-6{fill:url(#linear-gradient-6);}.cls-7{fill:url(#linear-gradient-7);}.cls-8{fill:url(#linear-gradient-8);}.cls-9{fill:#fff;}.cls-10{fill:url(#linear-gradient-9);}.cls-11{fill:url(#linear-gradient-10);}.cls-12{fill:url(#linear-gradient-11);}</style><linearGradient id="linear-gradient" x1="231.71" y1="619.39" x2="685.71" y2="337.83" gradientTransform="translate(371.85 -120.2) rotate(35)" gradientUnits="userSpaceOnUse"><stop offset="0" stop-color="#046878"/><stop offset="1" stop-color="#046878"/></linearGradient><linearGradient id="linear-gradient-2" x1="186.31" y1="549.33" x2="644.41" y2="265.23" gradientTransform="matrix(1, 0, 0, 1, 0, 0)" xlink:href="#linear-gradient"/><linearGradient id="linear-gradient-3" x1="208.45" y1="578.62" x2="656.83" y2="300.55" gradientTransform="matrix(1, 0, 0, 1, 0, 0)" xlink:href="#linear-gradient"/><linearGradient id="linear-gradient-4" x1="267.06" y1="660.36" x2="716.67" y2="381.52" gradientTransform="matrix(1, 0, 0, 1, 0, 0)" xlink:href="#linear-gradient"/><linearGradient id="linear-gradient-5" x1="273.43" y1="691.06" x2="735.44" y2="404.53" gradientTransform="matrix(1, 0, 0, 1, 0, 0)" xlink:href="#linear-gradient"/><linearGradient id="linear-gradient-6" x1="316.97" y1="742.29" x2="769.77" y2="461.48" gradientTransform="matrix(1, 0, 0, 1, 0, 0)" xlink:href="#linear-gradient"/><linearGradient id="linear-gradient-7" x1="213.87" y1="593.69" x2="666.64" y2="312.89" gradientTransform="matrix(1, 0, 0, 1, 0, 0)" xlink:href="#linear-gradient"/><linearGradient id="linear-gradient-8" x1="242.04" y1="625.23" x2="689.94" y2="347.45" gradientTransform="translate(716.42 -140.7) rotate(65.6)" xlink:href="#linear-gradient"/><linearGradient id="linear-gradient-9" x1="245.78" y1="642.61" x2="703.9" y2="358.5" gradientTransform="matrix(1, 0, 0, 1, 0, 0)" xlink:href="#linear-gradient"/><linearGradient id="linear-gradient-10" x1="231.85" y1="615.99" x2="687.83" y2="333.2" gradientTransform="matrix(1, 0, 0, 1, 0, 0)" xlink:href="#linear-gradient"/><linearGradient id="linear-gradient-11" x1="274.78" y1="685.31" x2="730.79" y2="402.5" gradientTransform="matrix(1, 0, 0, 1, 0, 0)" xlink:href="#linear-gradient"/></defs><rect class="cls-1" x="364.07" y="449.47" width="24.93" height="160.2" rx="6.49" transform="translate(-235.66 311.75) rotate(-35)"/><path class="cls-2" d="M324,463l-5.87-17.48a6.53,6.53,0,0,1,4.09-8.23l89.33-30a6.51,6.51,0,0,1,8.22,4.09l5.87,17.48"/><path class="cls-3" d="M324.34,468l8.28-16.69a7.58,7.58,0,0,1,9-3.68l80.82,28.24a5.6,5.6,0,0,1,3.25,8l-8.28,16.7"/><path class="cls-4" d="M679.45,458.79l5.17-17.7a6.51,6.51,0,0,0-4.41-8l-88.32-25.79a6.51,6.51,0,0,0-8,4.41l-5.17,17.7"/><path class="cls-5" d="M679.91,463.45,671,447.1a7.57,7.57,0,0,0-9.16-3.31l-79.64,31.43a5.6,5.6,0,0,0-2.92,8.08l8.93,16.35"/><path class="cls-6" d="M684.82,440.48l-18.43.12a6.53,6.53,0,0,0-6.46,6.54l.94,146.16a6.51,6.51,0,0,0,6.53,6.45l18.44-.12"/><path class="cls-7" d="M317.79,444.06l18.44.09a6.52,6.52,0,0,1,6.47,6.52l-.64,145.12a6.51,6.51,0,0,1-6.52,6.46l-18.44-.08"/><rect class="cls-8" x="391.7" y="473.84" width="151.34" height="23.29" rx="6.06" transform="translate(-167.83 710.55) rotate(-65.6)"/><path class="cls-9" d="M496.72,502.55c3.21,0,3.22-5,0-5s-3.23,5,0,5Z"/><path class="cls-10" d="M562.07,412.23a6.52,6.52,0,0,0-9.19.19l-119,124a43.17,43.17,0,0,0-5.12,6.07c-.35.76,1.48,3.41,4.06,5.88l7.89,7.57a6.5,6.5,0,0,0,9.18-.19l121-126.11a6.52,6.52,0,0,0-.19-9.18Z"/><path class="cls-11" d="M533.53,468.59a8.61,8.61,0,0,0,1.19-9.64l-28-49a6.08,6.08,0,0,0-8.28-2.26l-9.69,5.53a6.09,6.09,0,0,0-2.25,8.28l31.41,55a4.3,4.3,0,0,0,7.21.89Z"/><path class="cls-12" d="M546.1,477.62c-1.65-2.9-4.86-3.26-7.13-.82l-8.34,9a8.83,8.83,0,0,0-1.12,9.72l29,50.83a6.08,6.08,0,0,0,8.27,2.25l9.69-5.53a6.09,6.09,0,0,0,2.26-8.28Z"/></svg>